<svg xmlns="http://www.w3.org/2000/svg" xml:space="preserve" id="图层_2" x="0" y="0" style="enable-background:new 0 0 615 591" version="1.1" viewBox="0 0 615 591"><style>.st1{fill:#fff}</style><path id="图层_3" d="M0 0h615v591H0z" style="fill:#800020"/><circle cx="536.3" cy="34.4" r="7.7" class="st1"/><path d="M273.7 79.7V209h120.8V79.7H273.7zM387.8 201h-14.9v-45.7c0-20 .2-40.5.7-52h-.6c-4.7 18-21.6 63.5-33.8 97.6h-13.6c-9.2-27.9-26.7-79-31.6-97.9h-.5c.9 12.5 1.2 36.4 1.2 55v43h-14.3V92.6h22.8c11.9 33.1 26.4 75.8 30.1 89.8h.2c2.6-10.8 19.8-57.5 32.1-89.8h22.1V201zM65.2 169.2 53.8 201H38.6L77.1 92.6H96L136 201h-16.2l-11.7-31.8H65.2zm39.1-13c-10.1-27.9-15.7-43-18.1-51.5H86c-2.7 9.3-8.9 27.5-17 51.5h35.3zM160.4 92.6V201h-15.3V92.6h15.3zM267.3 170c-4.8 18.6-18.6 32.4-43.5 32.4-32.6 0-49-24.6-49-55.3 0-29.5 16.4-56.1 49.6-56.1 25.9 0 39.8 14.8 42.9 32.9H252c-3.7-11.5-11.3-20.3-28.3-20.3-23.5 0-33 21.3-33 43 0 21 9 43.1 33.6 43.1 16.6 0 23.7-9.6 27.5-19.8h15.5zM423.7 92.6v65.2c0 25.2 13.7 32 27.4 32 16 0 27.1-7.5 27.1-32V92.6h15.4V157c0 35.4-19.7 45.4-42.8 45.4-22.8 0-42.5-10.8-42.5-44.4V92.6h15.4zM30.4 234.6l-1.3 3.5h-1.3l4-11.2h1.6l4.2 11.2h-1.4l-1.3-3.5h-4.5zm4.2-1.1c-1.1-3-1.7-4.6-2-5.4-.3.9-.9 2.8-1.8 5.4h3.8zM39.6 233.1v5h-1.3V227h4.3c2.3 0 3.5 1.2 3.5 3 0 1.4-.8 2.3-2 2.6 1 .3 1.8 1 1.8 2.9v.5c0 .8 0 1.8.1 2.2h-1.3c-.2-.5-.2-1.4-.2-2.4v-.3c0-1.7-.5-2.4-2.5-2.4h-2.4zm0-1.1h2.5c1.8 0 2.6-.7 2.6-2 0-1.2-.8-1.9-2.4-1.9h-2.7v3.9zM49.6 228.1H46V227h8.6v1.1h-3.7v10h-1.3v-10zM56.3 227v11.2H55V227h1.3zM58.1 227h7.1v1.1h-5.8v3.8h5.4v1.1h-5.4v5.1h-1.3V227zM67.2 227v11.2h-1.3V227h1.3zM77.7 235c-.5 1.9-1.9 3.2-4.4 3.2-3.3 0-5-2.5-5-5.7 0-3 1.7-5.8 5-5.8 2.6 0 4 1.5 4.3 3.3h-1.3c-.4-1.3-1.3-2.2-3.1-2.2-2.5 0-3.6 2.3-3.6 4.6 0 2.2 1 4.6 3.7 4.6 1.7 0 2.6-1 3-2.1h1.4zM80 227v11.2h-1.3V227H80zM83.3 234.6l-1.3 3.5h-1.3l4-11.2h1.6l4.2 11.2h-1.4l-1.3-3.5h-4.5zm4.2-1.1c-1.1-3-1.7-4.6-2-5.4-.3.9-.9 2.8-1.8 5.4h3.8zM91.2 227h1.3v10h5.9l-.2 1.1h-7V227zM103.1 227v11.2h-1.3V227h1.3zM104.9 238.1V227h1.8c1.6 2.6 5.3 8.4 5.9 9.6-.1-1.5-.1-3.2-.1-5V227h1.2v11.2H112c-1.5-2.5-5.3-8.6-6-9.8.1 1.3.1 3.1.1 5.2v4.7h-1.2zM117.9 228.1h-3.6V227h8.6v1.1h-3.7v10h-1.3v-10zM130.2 232.8h-5.6v4.2h6.1l-.2 1.1h-7.2V227h7.1v1.1h-5.9v3.6h5.6v1.1zM131.6 227h1.3v10h5.9l-.2 1.1h-7V227zM139.3 227h1.3v10h5.9l-.2 1.1h-7V227zM148.4 227v11.2h-1.3V227h1.3zM159.1 238.1h-1c-.1-.2-.1-.7-.1-1.6-.5.8-1.4 1.7-3.5 1.7-3.2 0-4.9-2.4-4.9-5.6 0-3.3 1.8-5.8 5.1-5.8 2.5 0 4.2 1.4 4.5 3.4h-1.3c-.4-1.3-1.4-2.3-3.2-2.3-2.6 0-3.7 2.1-3.7 4.7 0 2.4 1.1 4.6 3.7 4.6s3.2-1.7 3.2-3.8v-.1h-3.3v-1.1h4.5v5.9zM167.5 232.8h-5.6v4.2h6.1l-.2 1.1h-7.2V227h7.1v1.1h-5.9v3.6h5.6v1.1zM168.9 238.1V227h1.8c1.6 2.6 5.3 8.4 5.9 9.6-.1-1.5-.1-3.2-.1-5V227h1.2v11.2H176c-1.5-2.5-5.3-8.6-6-9.8.1 1.3.1 3.1.1 5.2v4.7h-1.2zM188.3 235c-.5 1.9-1.9 3.2-4.4 3.2-3.3 0-5-2.5-5-5.7 0-3 1.7-5.8 5-5.8 2.6 0 4 1.5 4.3 3.3H187c-.4-1.3-1.3-2.2-3.1-2.2-2.5 0-3.6 2.3-3.6 4.6 0 2.2 1 4.6 3.7 4.6 1.7 0 2.6-1 3-2.1h1.3zM196.2 232.8h-5.6v4.2h6.1l-.2 1.1h-7.2V227h7.1v1.1h-5.9v3.6h5.6v1.1zM202 234.6l-1.3 3.5h-1.3l4-11.2h1.6l4.2 11.2h-1.4l-1.3-3.5H202zm4.2-1.1c-1.1-3-1.7-4.6-2-5.4-.3.9-.9 2.8-1.8 5.4h3.8zM209.9 238.1V227h1.8c1.6 2.6 5.3 8.4 5.9 9.6-.1-1.5-.1-3.2-.1-5V227h1.2v11.2H217c-1.5-2.5-5.3-8.6-6-9.8.1 1.3.1 3.1.1 5.2v4.7h-1.2zM220.6 227h3.9c3.1 0 5.2 2.1 5.2 5.5 0 3.3-2.1 5.7-5.3 5.7h-3.9V227zm1.3 10h2.4c2.7 0 4-1.9 4-4.5 0-2.3-1.2-4.4-4-4.4h-2.4v8.9zM242.5 235c-.5 1.9-1.9 3.2-4.4 3.2-3.3 0-5-2.5-5-5.7 0-3 1.7-5.8 5-5.8 2.6 0 4 1.5 4.3 3.3h-1.3c-.4-1.3-1.3-2.2-3.1-2.2-2.5 0-3.6 2.3-3.6 4.6 0 2.2 1 4.6 3.7 4.6 1.7 0 2.6-1 3-2.1h1.4zM253.2 232.5c0 3.1-1.7 5.8-5.2 5.8-3.2 0-5.1-2.5-5.1-5.7s1.8-5.7 5.2-5.7c3.1-.1 5.1 2.3 5.1 5.6zm-8.9 0c0 2.5 1.3 4.7 3.8 4.7 2.7 0 3.8-2.2 3.8-4.7s-1.2-4.6-3.7-4.6c-2.8 0-3.9 2.2-3.9 4.6zM263.9 233.3c0-2.1 0-4.2.1-5.4h-.1c-.5 1.7-2.4 6.7-3.7 10.2H259c-1-2.8-3-8.4-3.5-10.2.1 1.3.1 3.8.1 5.7v4.5h-1.2V227h1.9c1.3 3.6 3 8.2 3.4 9.6.3-1 2.2-6.1 3.6-9.6h1.9v11.2h-1.3v-4.9zM267 227h4.2c2.1 0 3.6 1.2 3.6 3.2 0 2.1-1.5 3.3-3.7 3.3h-2.8v4.7H267V227zm1.3 5.3h2.7c1.6 0 2.4-.8 2.4-2.1 0-1.4-.9-2.1-2.3-2.1h-2.8v4.2zM277.1 227v6.7c0 2.7 1.5 3.5 3 3.5 1.7 0 3-.8 3-3.5V227h1.3v6.7c0 3.6-2 4.6-4.3 4.6s-4.3-1.1-4.3-4.5V227h1.3zM288.3 228.1h-3.6V227h8.6v1.1h-3.7v10h-1.3v-10zM295.1 234.6l-1.3 3.5h-1.3l4-11.2h1.6l4.2 11.2H301l-1.3-3.5h-4.6zm4.2-1.1c-1.1-3-1.7-4.6-2-5.4-.3.9-.9 2.8-1.8 5.4h3.8zM305.3 228.1h-3.6V227h8.6v1.1h-3.7v10h-1.3v-10zM312 227v11.2h-1.3V227h1.3zM323.4 232.5c0 3.1-1.7 5.8-5.2 5.8-3.2 0-5.1-2.5-5.1-5.7s1.8-5.7 5.2-5.7c3.2-.1 5.1 2.3 5.1 5.6zm-8.9 0c0 2.5 1.3 4.7 3.8 4.7 2.7 0 3.8-2.2 3.8-4.7s-1.2-4.6-3.7-4.6c-2.7 0-3.9 2.2-3.9 4.6zM324.6 238.1V227h1.8c1.6 2.6 5.3 8.4 5.9 9.6-.1-1.5-.1-3.2-.1-5V227h1.2v11.2h-1.7c-1.5-2.5-5.3-8.6-6-9.8.1 1.3.1 3.1.1 5.2v4.7h-1.2zM336.7 234.6l-1.3 3.5h-1.3l4-11.2h1.6l4.2 11.2h-1.4l-1.3-3.5h-4.5zm4.2-1.1c-1.1-3-1.7-4.6-2-5.4-.3.9-.9 2.8-1.8 5.4h3.8zM344.6 227h1.3v10h5.9l-.2 1.1h-7V227zM364.8 233.3c0-2.1 0-4.2.1-5.4h-.1c-.5 1.7-2.4 6.7-3.7 10.2h-1.2c-1-2.8-3-8.4-3.5-10.2.1 1.3.1 3.8.1 5.7v4.5h-1.2V227h1.9c1.3 3.6 3 8.2 3.4 9.6.3-1 2.2-6.1 3.6-9.6h1.9v11.2h-1.3v-4.9zM377.6 232.5c0 3.1-1.7 5.8-5.2 5.8-3.2 0-5.1-2.5-5.1-5.7s1.8-5.7 5.2-5.7c3.1-.1 5.1 2.3 5.1 5.6zm-8.9 0c0 2.5 1.3 4.7 3.8 4.7 2.7 0 3.8-2.2 3.8-4.7s-1.2-4.6-3.7-4.6c-2.8 0-3.9 2.2-3.9 4.6zM378.8 227h3.9c3.1 0 5.2 2.1 5.2 5.5 0 3.3-2.1 5.7-5.3 5.7h-3.9V227zm1.3 10h2.4c2.7 0 4-1.9 4-4.5 0-2.3-1.2-4.4-4-4.4h-2.4v8.9zM395.9 232.8h-5.6v4.2h6.1l-.2 1.1H389V227h7.1v1.1h-5.9v3.6h5.6v1.1zM397.4 227h1.3v10h5.9l-.2 1.1h-7V227zM406.4 227v11.2h-1.3V227h1.3zM408.2 238.1V227h1.8c1.6 2.6 5.3 8.4 5.9 9.6-.1-1.5-.1-3.2-.1-5V227h1.2v11.2h-1.7c-1.5-2.5-5.3-8.6-6-9.8.1 1.3.1 3.1.1 5.2v4.7h-1.2zM427.9 238.1h-1c-.1-.2-.1-.7-.1-1.6-.5.8-1.4 1.7-3.5 1.7-3.2 0-4.9-2.4-4.9-5.6 0-3.3 1.8-5.8 5.1-5.8 2.5 0 4.2 1.4 4.5 3.4h-1.3c-.4-1.3-1.4-2.3-3.2-2.3-2.6 0-3.7 2.1-3.7 4.7 0 2.4 1.1 4.6 3.7 4.6s3.2-1.7 3.2-3.8v-.1h-3.3v-1.1h4.5v5.9zM433.5 227v6.7c0 2.7 1.5 3.5 3 3.5 1.7 0 3-.8 3-3.5V227h1.3v6.7c0 3.6-2 4.6-4.3 4.6s-4.3-1.1-4.3-4.5V227h1.3zM442.5 238.1V227h1.8c1.6 2.6 5.3 8.4 5.9 9.6-.1-1.5-.1-3.2-.1-5V227h1.2v11.2h-1.7c-1.5-2.5-5.3-8.6-6-9.8.1 1.3.1 3.1.1 5.2v4.7h-1.2zM454.5 227v11.2h-1.3V227h1.3zM459.1 238.1 455 227h1.4l2 5.6c.6 1.7 1.2 3.4 1.4 4.4.2-.9.9-2.7 1.5-4.3l2.1-5.7h1.4l-4.2 11.2h-1.5zM472.2 232.8h-5.6v4.2h6.1l-.2 1.1h-7.2V227h7.1v1.1h-5.9v3.6h5.6v1.1zM475 233.1v5h-1.3V227h4.3c2.3 0 3.5 1.2 3.5 3 0 1.4-.8 2.3-2 2.6 1 .3 1.8 1 1.8 2.9v.5c0 .8 0 1.8.1 2.2h-1.3c-.2-.5-.2-1.4-.2-2.4v-.3c0-1.7-.5-2.4-2.5-2.4H475zm0-1.1h2.5c1.8 0 2.6-.7 2.6-2 0-1.2-.8-1.9-2.4-1.9H475v3.9zM483.2 235.1c.3 1.4 1.2 2.1 2.9 2.1 1.8 0 2.5-.9 2.5-2 0-1.2-.6-1.8-2.9-2.4-2.6-.6-3.5-1.5-3.5-3.1s1.2-3 3.6-3c2.6 0 3.7 1.5 3.8 3h-1.3c-.2-1.1-.9-1.9-2.5-1.9-1.4 0-2.2.7-2.2 1.8s.7 1.5 2.6 2c3.2.8 3.7 2 3.7 3.4 0 1.8-1.3 3.2-4 3.2-2.8 0-4-1.6-4.2-3.2h1.5zM492.4 227v11.2h-1.3V227h1.3zM496.5 228.1h-3.6V227h8.6v1.1h-3.7v10h-1.3v-10z" class="st1"/><path d="M504.4 238.1V234c0-.1 0-.2-.1-.3l-3.9-6.8h1.5c1 1.8 2.8 4.8 3.3 5.8.5-.9 2.2-3.9 3.3-5.8h1.4l-4.1 6.8c0 .1-.1.1-.1.3v4.1h-1.3z" class="st1"/></svg>